<svg width="893" height="893" viewBox="0 0 893 893" fill="none" xmlns="http://www.w3.org/2000/svg">
<path d="M860.982 262.597C861.288 248.695 857.782 234.974 850.843 222.924C843.563 211.094 833.262 201.417 821.001 194.892C710.604 133.915 600.154 72.9706 489.65 12.0579C476.327 4.04035 461.045 -0.131912 445.497 0.00317946C429.949 0.138271 414.742 4.57545 401.56 12.8233C357.626 37.6667 137.735 158.408 72.1857 194.796C59.7119 201.064 49.2987 210.781 42.1834 222.794C35.0681 234.807 31.5497 248.611 32.0461 262.565V630.561C31.7241 644.15 35.0254 657.579 41.6108 669.469C48.9329 681.64 59.4534 691.568 72.0263 698.171C137.576 734.559 357.499 855.301 401.433 880.144C414.609 888.402 429.813 892.85 445.361 892.996C460.909 893.143 476.194 888.981 489.523 880.973C599.835 819.933 710.211 758.988 820.651 698.139C833.226 691.527 843.755 681.602 851.098 669.437C857.683 657.547 860.985 644.118 860.663 630.529V262.597" fill="#4E994A"/>
<path d="M846.705 675C848.375 673.15 849.942 671.21 851.399 669.188C857.995 657.284 861.301 643.837 860.978 630.231V261.832C861.285 247.912 857.774 234.174 850.824 222.109C849.675 220.225 847.982 218.756 846.673 217L446 446.016L846.705 675Z" fill="#358230"/>
<path d="M846 675.446L446 447L46 675.446C52.7639 684.929 61.5775 692.769 71.7869 698.383C137.322 734.731 357.196 855.342 401.12 880.158C414.293 888.407 429.494 892.85 445.038 892.996C460.583 893.142 475.864 888.986 489.191 880.986C599.478 820.012 709.83 759.134 820.245 698.351C830.443 692.746 839.246 684.918 846 675.446Z" fill="#1A7515"/>
<path d="M560.763 510.814C546.547 536.062 524.372 555.908 497.691 567.264C471.009 578.62 441.316 580.849 413.234 573.604C385.152 566.358 360.257 550.045 342.421 527.203C324.586 504.361 314.812 476.272 314.621 447.307C314.429 418.342 323.83 390.126 341.362 367.051C358.893 343.976 383.571 327.336 411.555 319.72C439.538 312.105 469.258 313.942 496.088 324.945C522.917 335.948 545.352 355.5 559.901 380.558L675.266 314.49C645.983 264.303 600.99 225.123 547.217 202.986C493.444 180.849 433.875 176.982 377.685 191.982C321.495 206.982 271.803 240.016 236.262 285.996C200.721 331.976 181.303 388.35 181 446.435C180.943 492.494 193.051 537.754 216.104 577.647C239.448 617.94 273.004 651.385 313.397 674.619C353.79 697.852 399.596 710.055 446.209 710C492.822 709.945 538.599 697.634 578.937 674.306C619.275 650.977 652.751 617.453 676 577.105L560.763 510.814Z" fill="white"/>
<path d="M819 422.808V383.192H786.781V351H747.14V383.192H698.892V351H659.251V383.192H627V422.808H659.187V471.224H627V510.808H659.187V543H698.828V510.808H747.108V543H786.749V510.808H818.936V471.224H786.941V422.808H819ZM747.14 471.224H698.892V422.808H747.14V471.224Z" fill="white"/>
</svg>
