<svg width="893" height="893" viewBox="0 0 893 893" fill="none" xmlns="http://www.w3.org/2000/svg">
<path d="M130 713L135.282 705.649L384.472 233.734L385 228.74L275.164 22.7774C273.153 19.0111 270.007 15.9713 266.17 14.088C262.334 12.2048 258.002 11.5736 253.786 12.2835C249.57 12.9935 245.685 15.0088 242.68 18.0443C239.675 21.0798 237.702 24.9818 237.04 29.1982L130 713Z" fill="#FFC24A"/>
<path d="M133 708L136.968 700.243L383 233.097L273.701 26.2699C271.898 22.673 268.98 19.7575 265.383 17.9602C261.786 16.1628 257.704 15.5805 253.749 16.3003C249.793 17.0201 246.177 19.0034 243.443 21.953C240.708 24.9026 239.002 28.6597 238.58 32.6615L133 708Z" fill="#FFA712"/>
<path d="M464.551 385L546 301.111L464.52 145.11C462.727 141.752 460.06 138.946 456.804 136.99C453.548 135.033 449.825 134 446.03 134C442.236 134 438.512 135.033 435.256 136.99C432 138.946 429.334 141.752 427.54 145.11L384 228.439V235.554L464.551 385Z" fill="#F4BD62"/>
<path d="M463.55 381L543 299.79L463.55 148.528C462.249 145.253 460.028 142.425 457.154 140.382C454.279 138.34 450.875 137.171 447.35 137.017C443.825 136.863 440.331 137.731 437.289 139.514C434.247 141.298 431.787 143.922 430.205 147.071L386.304 231.66L385 235.968L463.55 381Z" fill="#FFA50E"/>
<path d="M130 713L132.393 710.582L141.065 707.079L459.959 390.194L464 379.22L384.463 228L130 713Z" fill="#F6820C"/>
<path d="M474.799 873.446L763 712.624L680.648 205.504C680.058 201.929 678.494 198.586 676.13 195.842C673.766 193.097 670.691 191.058 667.245 189.948C663.798 188.838 660.113 188.7 656.593 189.549C653.073 190.397 649.854 192.2 647.291 194.759L130 713.339L416.495 873.415C425.401 878.389 435.431 881 445.631 881C455.831 881 465.861 878.389 474.768 873.415" fill="#FDE068"/>
<path d="M760 711.228L678.364 208.547C678.22 205.131 677.066 201.836 675.048 199.077C673.03 196.318 670.239 194.22 667.028 193.047C663.817 191.875 660.33 191.682 657.009 192.492C653.688 193.302 650.682 195.079 648.371 197.599L133 712.313L416.212 870.487C425.045 875.414 434.99 878 445.104 878C455.218 878 465.164 875.414 473.996 870.487L760 711.228Z" fill="#FCCA3F"/>
<path d="M474.799 868.582C465.892 873.564 455.862 876.179 445.662 876.179C435.462 876.179 425.432 873.564 416.526 868.582L132.358 710.644L130 713.07L416.495 873.403C425.401 878.385 435.431 881 445.631 881C455.831 881 465.861 878.385 474.768 873.403L763 712.354L762.286 708L474.799 868.582Z" fill="#EEAB37"/>
</svg>
