<svg width="893" height="893" viewBox="0 0 893 893" fill="none" xmlns="http://www.w3.org/2000/svg">
<path d="M55.8125 55.8125V837.188H837.188V55.8125H55.8125ZM481.048 665.201C481.048 741.246 436.398 775.961 371.348 775.961C312.578 775.961 278.56 745.627 261.119 708.819L320.95 672.708C332.475 693.108 342.94 710.381 368.223 710.381C392.278 710.381 407.627 700.949 407.627 664.169V414.575H481.048V665.201ZM654.736 775.961C586.534 775.961 542.414 743.534 520.954 700.949L580.785 666.429C596.496 692.075 617.063 711.079 653.174 711.079C683.508 711.079 703.07 695.898 703.07 674.801C703.07 649.685 683.173 640.783 649.518 625.965L631.211 618.123C578.19 595.631 543.139 567.195 543.139 507.364C543.139 452.249 585.166 410.389 650.578 410.389C697.321 410.389 730.809 426.603 754.892 469.16L697.684 505.801C685.126 483.308 671.508 474.406 650.411 474.406C628.979 474.406 615.361 488.024 615.361 505.801C615.361 527.791 628.979 536.665 660.541 550.451L678.847 558.292C741.302 584.971 776.352 612.375 776.352 673.741C776.352 739.683 724.363 775.933 654.764 775.933L654.736 775.961Z" fill="#FCCA3F"/>
</svg>
