<svg width="893" height="893" viewBox="0 0 893 893" fill="none" xmlns="http://www.w3.org/2000/svg">
<g clip-path="url(#clip0_22_98)">
<path d="M683.703 0H209.297C93.7054 0 0 93.7054 0 209.297V683.703C0 799.295 93.7054 893 209.297 893H683.703C799.295 893 893 799.295 893 683.703V209.297C893 93.7054 799.295 0 683.703 0Z" fill="#242938"/>
<path fill-rule="evenodd" clip-rule="evenodd" d="M289.527 383.711C310.457 299.992 362.785 258.133 446.5 258.133C572.078 258.133 587.775 352.316 650.564 368.014C692.427 378.482 729.051 362.785 760.445 320.922C739.519 404.637 687.188 446.5 603.473 446.5C477.895 446.5 462.197 352.316 399.408 336.619C357.545 326.154 320.922 341.852 289.527 383.711ZM132.555 572.078C153.484 488.363 205.809 446.5 289.527 446.5C415.105 446.5 430.803 540.684 493.592 556.381C535.455 566.849 572.078 551.152 603.473 509.289C582.546 593.004 530.215 634.867 446.5 634.867C320.922 634.867 305.225 540.684 242.436 524.986C200.576 514.518 163.949 530.215 132.555 572.078Z" fill="url(#paint0_linear_22_98)"/>
</g>
<defs>
<linearGradient id="paint0_linear_22_98" x1="301.736" y1="258.133" x2="570.334" y2="647.076" gradientUnits="userSpaceOnUse">
<stop stop-color="#32B1C1"/>
<stop offset="1" stop-color="#14C6B7"/>
</linearGradient>
<clipPath id="clip0_22_98">
<rect width="893" height="893" fill="white"/>
</clipPath>
</defs>
</svg>
