<svg width="893" height="893" viewBox="0 0 893 893" fill="none" xmlns="http://www.w3.org/2000/svg">
<g clip-path="url(#clip0_22_74)">
<path d="M683.703 0H209.297C93.7054 0 0 93.7054 0 209.297V683.703C0 799.295 93.7054 893 209.297 893H683.703C799.295 893 893 799.295 893 683.703V209.297C893 93.7054 799.295 0 683.703 0Z" fill="#242938"/>
<path d="M753.615 585.382V260.725L472.243 98.394V223.205L582.63 286.695C586.959 288.858 586.959 295.353 582.63 297.515L451.32 373.27C447.713 375.437 442.666 375.437 439.056 373.27L307.75 296.797C303.424 294.634 303.424 288.139 307.75 285.973L418.136 222.486V97.6719L136.765 260.002V585.382L244.985 523.336V395.637C244.985 391.308 250.033 387.701 254.362 390.586L385.667 466.341C389.278 468.504 392.163 472.833 392.163 477.162V628.668C392.163 632.997 387.112 636.604 382.783 633.719L272.399 570.229L164.179 632.275L445.551 794.606L726.922 632.275L618.702 570.229L508.319 633.719C504.712 635.882 498.939 632.997 498.939 628.668V477.162C498.939 472.833 501.102 468.504 505.431 466.341L636.74 390.586C640.347 388.42 646.116 391.308 646.116 395.637V523.336L753.615 585.382Z" fill="#CCCCCC"/>
<path d="M444.829 795.328L726.201 632.998L617.98 570.952L507.597 634.442C503.99 636.608 498.217 633.72 498.217 629.391V477.884C498.217 473.555 500.383 469.226 504.712 467.064L636.018 391.309C639.625 389.146 645.398 392.031 645.398 396.36V524.059L753.615 586.105V260.725L444.829 438.924V795.328Z" fill="#A6A6A6"/>
<path d="M471.525 97.6719V222.483L581.908 285.973C586.237 288.136 586.237 294.631 581.908 296.797L450.602 372.549C446.995 374.715 441.944 374.715 438.337 372.549L307.75 296.797C303.424 294.634 303.424 288.139 307.75 285.973L418.136 222.486V97.6719L136.765 260.003L445.551 438.202L754.337 260.003L471.525 97.6719Z" fill="white"/>
<path d="M381.339 633.719L270.956 570.233L162.739 632.279L444.107 794.605V438.205L136.043 260.721V586.104L244.263 524.058V396.359C244.263 392.03 249.314 388.424 253.643 391.308L384.949 467.063C388.556 469.226 391.441 473.555 391.441 477.884V629.39C390.719 632.997 385.668 635.885 381.339 633.719Z" fill="#CCCCCC"/>
</g>
<defs>
<clipPath id="clip0_22_74">
<rect width="893" height="893" fill="white"/>
</clipPath>
</defs>
</svg>
