<svg width="893" height="893" viewBox="0 0 893 893" fill="none" xmlns="http://www.w3.org/2000/svg">
<g clip-path="url(#clip0_22_72)">
<path d="M430.539 0.00114055C423.991 0.00114055 419.005 0.0383489 417.219 0.261599C412.708 0.712636 408.193 1.12195 403.675 1.48948C276.906 12.8752 158.1 81.3014 82.8649 186.489C41.2575 244.219 14.2091 311.145 4.02045 381.573C0.448453 406.093 0.00195312 413.349 0.00195312 446.576C0.00195312 479.803 0.448453 487.096 4.02045 511.616C28.2803 679.277 147.645 820.148 309.464 872.351C338.449 881.653 368.997 888.053 403.75 891.886C417.256 893.374 475.748 893.374 489.291 891.886C549.234 885.262 600.061 870.416 650.143 844.854C657.845 840.91 659.334 839.868 658.292 838.975C657.548 838.492 624.804 794.586 585.549 741.489L514.147 645.045L424.698 512.658C394.939 468.363 364.899 424.258 334.579 380.345C334.244 380.271 333.909 439.097 333.723 510.946C333.463 636.711 333.351 641.734 331.789 644.71C330.272 648.198 327.551 651.024 324.124 652.673C321.333 654.05 318.915 654.31 305.706 654.31H290.562L286.543 651.78C284.059 650.223 282.041 648.025 280.702 645.417L278.841 641.473L279.064 466.482L279.325 291.417L282.004 287.994C283.833 285.854 286.025 284.053 288.478 282.673C292.05 280.924 293.464 280.775 308.571 280.775C326.356 280.775 329.333 281.445 333.947 286.506C370.156 340.392 406.062 394.482 441.665 448.771C500.356 537.723 559.084 626.651 617.846 715.555L688.542 822.678L692.114 820.334C726.151 797.718 757.01 770.65 783.87 739.852C840.12 675.465 876.604 596.218 888.946 511.616C892.518 487.059 892.965 479.84 892.965 446.576C892.965 413.349 892.518 406.093 888.946 381.573C864.686 213.912 745.359 73.0412 583.54 20.8378C553.285 11.2188 522.13 4.6987 490.557 1.37785C470.577 0.432248 450.578 -0.0267911 430.577 0.00114055H430.539ZM581.94 268.534C594.851 268.534 597.121 268.72 600.024 270.283C602.102 271.332 603.952 272.783 605.465 274.552C606.979 276.322 608.127 278.374 608.842 280.589C609.512 282.822 609.698 331.379 609.512 440.734L609.288 597.679L581.605 555.262L553.848 512.844V398.763C553.848 325.016 554.22 283.529 554.704 281.557C555.327 279.23 556.417 277.053 557.908 275.16C559.398 273.267 561.258 271.696 563.373 270.543C566.945 268.683 568.21 268.534 581.977 268.534H581.94Z" fill="#1B1B1B"/>
</g>
<defs>
<clipPath id="clip0_22_72">
<rect width="893" height="893" fill="white"/>
</clipPath>
</defs>
</svg>
