<svg width="1110" height="679" viewBox="0 0 1110 679" fill="none" xmlns="http://www.w3.org/2000/svg">
<g clip-path="url(#clip0_22_34)">
<path d="M548.735 677.041C544.978 677.041 541.47 676.042 538.211 674.292L504.888 654.549C499.875 651.799 502.381 650.8 503.886 650.3C510.65 648.051 511.903 647.55 518.919 643.553C519.671 643.052 520.675 643.303 521.425 643.802L546.983 659.047C547.985 659.547 549.238 659.547 549.988 659.047L649.964 601.315C650.965 600.815 651.468 599.814 651.468 598.566V483.353C651.468 482.101 650.965 481.104 649.964 480.602L549.988 423.121C548.986 422.619 547.733 422.619 546.983 423.121L447.007 480.602C446.006 481.102 445.503 482.351 445.503 483.35V598.564C445.503 599.566 446.006 600.813 447.007 601.315L474.319 617.059C489.103 624.557 498.373 615.81 498.373 607.063V493.347C498.373 491.849 499.626 490.348 501.38 490.348H514.158C515.662 490.348 517.165 491.598 517.165 493.347V607.063C517.165 626.806 506.39 638.303 487.598 638.303C481.836 638.303 477.326 638.303 464.546 632.054L438.238 617.059C431.723 613.312 427.714 606.312 427.714 598.815V483.601C427.714 476.104 431.723 469.104 438.238 465.357L538.211 407.625C544.477 404.126 552.997 404.126 559.26 407.625L659.234 465.357C665.749 469.104 669.759 476.104 669.759 483.601V598.815C669.759 606.312 665.749 613.312 659.234 617.059L559.26 674.792C556.002 676.292 552.242 677.041 548.735 677.041ZM579.554 597.816C535.707 597.816 526.686 577.822 526.686 560.828C526.686 559.327 527.94 557.829 529.693 557.829H542.723C544.225 557.829 545.478 558.828 545.478 560.328C547.484 573.573 553.246 580.071 579.806 580.071C600.853 580.071 609.876 575.323 609.876 564.076C609.876 557.578 607.367 552.831 574.544 549.581C547.232 546.831 530.194 540.834 530.194 519.091C530.194 498.846 547.234 486.849 575.797 486.849C607.868 486.849 623.655 497.847 625.661 521.837C625.661 522.59 625.409 523.338 624.908 524.088C624.405 524.588 623.655 525.087 622.903 525.087H609.874C608.62 525.087 607.367 524.088 607.118 522.838C604.111 509.094 596.343 504.594 575.797 504.594C552.745 504.594 549.988 512.593 549.988 518.589C549.988 525.838 553.246 528.087 584.315 532.085C615.135 536.085 629.669 541.833 629.669 563.325C629.418 585.319 611.378 597.816 579.554 597.816Z" fill="#539E43"/>
<path d="M238.538 226.431C238.538 221.933 236.031 217.682 232.023 215.433L125.784 154.453C124.028 153.452 122.024 152.952 120.021 152.701H119.017C117.014 152.701 115.009 153.452 113.255 154.453L7.01573 215.433C3.00498 217.682 0.500977 221.931 0.500977 226.431L0.752461 390.379C0.752461 392.628 2.00555 394.877 4.00875 395.878C6.01412 397.128 8.51813 397.128 10.2742 395.878L73.4163 359.889C77.4249 357.64 79.931 353.391 79.931 348.893V272.166C79.931 267.669 82.435 263.419 86.4458 261.17L113.255 245.675C115.26 244.425 117.515 243.923 119.77 243.923C122.024 243.923 124.279 244.425 126.035 245.675L152.844 261.17C156.855 263.419 159.359 267.666 159.359 272.166V348.893C159.359 353.391 161.865 357.64 165.874 359.889L229.016 395.878C229.991 396.491 231.12 396.816 232.273 396.816C233.426 396.816 234.555 396.491 235.531 395.878C237.536 394.877 238.789 392.628 238.789 390.379L238.538 226.431ZM749.188 0.750366C747.184 -0.250834 744.678 -0.250834 742.922 0.750366C740.919 2.00024 739.666 3.99832 739.666 6.24723V168.699C739.666 170.198 738.916 171.696 737.411 172.697C735.909 173.445 734.404 173.445 732.902 172.697L706.342 157.452C704.395 156.346 702.193 155.765 699.952 155.765C697.711 155.765 695.509 156.346 693.562 157.452L587.323 218.683C583.314 220.932 580.808 225.181 580.808 229.679V351.89C580.808 356.388 583.314 360.64 587.323 362.888L693.562 424.12C695.509 425.225 697.711 425.807 699.952 425.807C702.193 425.807 704.395 425.225 706.342 424.12L812.581 362.888C816.59 360.64 819.096 356.39 819.096 351.89V47.2359C819.096 42.4872 816.59 38.2402 812.581 35.9891L749.188 0.750366ZM739.417 311.654C739.417 312.904 738.916 313.903 737.912 314.403L701.581 335.395C701.074 335.642 700.517 335.771 699.952 335.771C699.387 335.771 698.83 335.642 698.323 335.395L661.992 314.403C660.988 313.903 660.487 312.653 660.487 311.654V269.667C660.487 268.417 660.988 267.418 661.992 266.918L698.323 245.923C698.83 245.676 699.387 245.548 699.952 245.548C700.517 245.548 701.074 245.676 701.581 245.923L737.912 266.918C738.916 267.416 739.417 268.668 739.417 269.667V311.654ZM1102.73 268.668C1106.74 266.419 1109 262.17 1109 257.67V227.93C1109 223.432 1106.49 219.183 1102.73 216.934L997.247 155.954C995.299 154.848 993.097 154.266 990.857 154.266C988.616 154.266 986.414 154.848 984.466 155.954L878.227 217.183C874.217 219.431 871.713 223.681 871.713 228.178V350.392C871.713 354.89 874.219 359.139 878.227 361.388L983.714 421.369C987.725 423.618 992.486 423.618 996.245 421.369L1060.14 385.884C1062.14 384.882 1063.4 382.634 1063.4 380.385C1063.4 378.136 1062.14 375.887 1060.14 374.886L953.397 313.655C951.392 312.405 950.139 310.407 950.139 308.158V269.92C950.139 267.671 951.392 265.422 953.397 264.421L986.721 245.426C987.697 244.814 988.826 244.489 989.979 244.489C991.131 244.489 992.26 244.814 993.236 245.426L1026.56 264.421C1028.57 265.67 1029.82 267.669 1029.82 269.92V299.91C1029.82 302.159 1031.07 304.408 1033.08 305.407C1034.05 306.02 1035.18 306.345 1036.33 306.345C1037.49 306.345 1038.62 306.02 1039.59 305.407L1102.73 268.668Z" fill="#333333"/>
<path d="M989.227 262.918C989.599 262.673 990.035 262.543 990.48 262.543C990.926 262.543 991.361 262.673 991.733 262.918L1012.03 274.664C1012.78 275.166 1013.28 275.914 1013.28 276.913V300.408C1013.28 301.407 1012.78 302.157 1012.03 302.657L991.733 314.403C991.361 314.648 990.926 314.778 990.48 314.778C990.035 314.778 989.599 314.648 989.227 314.403L968.933 302.657C968.18 302.157 967.68 301.407 967.68 300.408V276.915C967.68 275.914 968.178 275.164 968.933 274.666L989.227 262.918Z" fill="#539E43"/>
<path d="M416.187 156.453C414.24 155.348 412.038 154.767 409.798 154.767C407.558 154.767 405.356 155.348 403.409 156.453L297.922 217.181C293.911 219.429 291.657 223.679 291.657 228.176V349.89C291.657 354.388 294.163 358.637 297.922 360.886L403.409 421.618C405.356 422.723 407.558 423.305 409.798 423.305C412.038 423.305 414.24 422.723 416.187 421.618L521.676 360.886C525.685 358.637 527.942 354.388 527.942 349.89V228.179C527.942 223.681 525.433 219.432 521.676 217.183L416.187 156.453Z" fill="url(#paint0_linear_22_34)"/>
</g>
<defs>
<linearGradient id="paint0_linear_22_34" x1="16403.4" y1="4850.69" x2="4883.2" y2="22998.9" gradientUnits="userSpaceOnUse">
<stop stop-color="#41873F"/>
<stop offset="0.3288" stop-color="#418B3D"/>
<stop offset="0.6352" stop-color="#419637"/>
<stop offset="0.9319" stop-color="#3FA92D"/>
<stop offset="1" stop-color="#3FAE2A"/>
</linearGradient>
<clipPath id="clip0_22_34">
<rect width="1110" height="679" fill="white"/>
</clipPath>
</defs>
</svg>
