<svg width="1001" height="893" viewBox="0 0 1001 893" fill="none" xmlns="http://www.w3.org/2000/svg">
<path d="M794.023 304.186C784.328 300.853 774.551 297.766 764.701 294.927C766.355 288.154 767.879 281.462 769.231 274.888C791.429 166.935 776.917 79.9654 727.35 51.3309C679.825 23.88 602.101 52.5038 523.606 120.942C515.87 127.699 508.305 134.651 500.92 141.79C495.976 137.043 490.944 132.387 485.828 127.826C403.56 54.65 321.101 23.8087 271.586 52.5252C224.104 80.0616 210.044 161.819 230.029 264.129C232.017 274.261 234.262 284.342 236.762 294.36C225.09 297.683 213.827 301.219 203.048 304.984C106.596 338.674 45 391.469 45 446.231C45 502.791 111.126 559.522 211.585 593.921C219.729 596.698 227.942 599.272 236.214 601.639C233.527 612.429 231.142 623.293 229.061 634.216C210.008 734.751 224.887 814.576 272.241 841.938C321.15 870.194 403.24 841.153 483.17 771.154C489.651 765.463 495.99 759.611 502.18 753.603C510.178 761.334 518.389 768.84 526.805 776.113C604.233 842.857 680.7 869.809 728.008 842.373C776.871 814.034 792.753 728.28 772.135 623.949C770.51 615.776 768.689 607.642 766.672 599.557C772.437 597.846 778.095 596.085 783.611 594.252C888.049 559.589 956 503.547 956 446.231C956 391.269 892.415 338.118 794.023 304.186ZM771.373 557.247C766.391 558.898 761.281 560.491 756.071 562.042C744.541 525.475 728.983 486.595 709.941 446.42C728.111 407.205 743.072 368.82 754.278 332.492C763.597 335.194 772.64 338.043 781.358 341.048C865.662 370.125 917.083 413.109 917.083 446.231C917.083 481.511 861.548 527.311 771.373 557.247ZM733.958 631.521C743.075 677.653 744.374 719.364 738.335 751.974C732.912 781.275 722.001 800.808 708.507 808.633C679.8 825.282 618.403 803.642 552.189 746.558C544.361 739.797 536.722 732.818 529.282 725.631C554.954 697.507 580.607 664.812 605.646 628.498C649.687 624.584 691.294 618.181 729.026 609.443C730.843 616.762 732.488 624.124 733.958 631.521ZM355.58 805.756C327.531 815.678 305.19 815.963 291.685 808.162C262.95 791.56 251.003 727.464 267.298 641.489C269.235 631.33 271.453 621.226 273.949 611.19C311.265 619.461 352.569 625.407 396.714 628.994C421.923 664.527 448.317 697.186 474.917 725.785C469.264 731.265 463.477 736.604 457.562 741.799C422.214 772.751 386.796 794.711 355.58 805.756ZM224.175 557.03C179.753 541.818 143.068 522.049 117.923 500.477C95.3256 481.094 83.9203 461.846 83.9203 446.231C83.9203 412.998 133.374 370.61 215.859 341.8C225.869 338.307 236.346 335.009 247.217 331.915C258.619 369.062 273.572 407.904 291.618 447.18C273.337 487.037 258.17 526.499 246.658 564.085C239.107 561.918 231.611 559.565 224.175 557.03ZM268.223 256.639C251.103 168.985 262.473 102.864 291.087 86.2684C321.563 68.5929 388.956 93.7942 459.989 156.981C464.621 161.111 469.178 165.324 473.658 169.619C447.189 198.093 421.037 230.51 396.052 265.833C353.206 269.811 312.193 276.2 274.487 284.76C272.163 275.441 270.075 266.062 268.223 256.639ZM661.188 353.85C652.282 338.438 643.045 323.22 633.485 308.207C662.551 311.89 690.401 316.777 716.553 322.752C708.703 347.964 698.917 374.321 687.397 401.344C678.977 385.339 670.239 369.505 661.188 353.85ZM500.938 197.484C518.887 216.967 536.865 238.717 554.548 262.318C518.677 260.62 482.747 260.613 446.876 262.296C464.576 238.913 482.707 217.191 500.938 197.484ZM339.659 354.118C330.721 369.646 322.146 385.382 313.941 401.312C302.61 374.385 292.913 347.907 284.995 322.339C310.987 316.514 338.705 311.751 367.587 308.136C357.919 323.241 348.607 338.575 339.659 354.118ZM368.416 587.101C338.577 583.764 310.443 579.247 284.458 573.579C292.5 547.554 302.411 520.513 313.987 493.008C322.225 508.95 330.835 524.695 339.812 540.231C349.043 556.203 358.601 571.846 368.416 587.101ZM502.012 697.724C483.565 677.789 465.167 655.732 447.199 632.01C464.644 632.694 482.426 633.044 500.5 633.044C519.069 633.044 537.424 632.626 555.491 631.821C537.751 655.97 519.841 678.059 502.012 697.724ZM687.764 491.604C699.941 519.411 710.204 546.309 718.354 571.889C691.942 577.928 663.423 582.791 633.374 586.402C643.003 571.11 652.327 555.627 661.341 539.964C670.506 524.042 679.316 507.918 687.764 491.604ZM627.631 520.484C613.831 544.5 599.256 568.059 583.928 591.126C556.162 593.096 528.335 594.074 500.5 594.06C472.149 594.06 444.573 593.176 418.019 591.45C402.291 568.437 387.437 544.836 373.49 520.698C359.609 496.688 346.646 472.158 334.623 447.162C346.616 422.16 359.542 397.618 373.376 373.59L373.373 373.594C387.201 349.559 401.936 326.059 417.546 303.145C444.637 301.091 472.419 300.022 500.496 300.022C528.702 300.022 556.523 301.102 583.607 303.17C599.059 326.05 613.7 349.469 627.503 373.383C641.383 397.359 654.48 421.78 666.775 446.609C654.607 471.692 641.55 496.333 627.631 520.484ZM707.913 85.1062C738.417 102.732 750.281 173.808 731.115 267.016C729.89 272.963 728.517 279.02 727.022 285.162C689.223 276.421 648.182 269.922 605.212 265.883C580.18 230.172 554.242 197.705 528.204 169.598C535.028 163.008 542.014 156.589 549.157 150.347C616.414 91.7122 679.273 68.5608 707.913 85.1062ZM500.5 364.734C545.427 364.734 581.849 401.223 581.849 446.231C581.849 491.24 545.427 527.728 500.5 527.728C455.573 527.728 419.151 491.24 419.151 446.231C419.151 401.223 455.573 364.734 500.5 364.734Z" fill="#00D8FF"/>
</svg>
